<?xml version="1.0" standalone="no"?>
<!DOCTYPE svg PUBLIC "-//W3C//DTD SVG 20010904//EN"
 "http://www.w3.org/TR/2001/REC-SVG-20010904/DTD/svg10.dtd">
<svg version="1.0" xmlns="http://www.w3.org/2000/svg"
 width="512.000000pt" height="512.000000pt" viewBox="0 0 512.000000 512.000000"
 preserveAspectRatio="xMidYMid meet">

<g transform="translate(0.000000,512.000000) scale(0.100000,-0.100000)"
fill="#000000" stroke="none">
<path d="M3891 4574 c-42 -53 -24 -78 126 -177 287 -190 529 -423 714 -688 98
-140 106 -149 142 -149 38 0 50 7 66 37 20 39 12 59 -63 167 -225 320 -501
587 -810 780 -104 65 -142 72 -175 30z"/>
<path d="M1583 3378 c-34 -38 -83 -134 -83 -162 0 -33 41 -76 72 -76 37 0 63
25 102 94 41 73 45 117 16 146 -28 28 -81 26 -107 -2z"/>
<path d="M1933 3034 c-22 -22 -24 -31 -19 -66 10 -60 39 -110 96 -161 59 -53
121 -77 202 -77 126 0 189 70 123 136 -24 24 -30 25 -89 19 -100 -11 -155 24
-185 118 -21 62 -82 77 -128 31z"/>
<path d="M2696 2727 c-46 -50 -88 -140 -80 -171 11 -47 69 -70 114 -46 10 5
37 44 60 85 46 83 48 122 7 150 -34 24 -67 18 -101 -18z"/>
</g>
</svg>
